<?xml version="1.0" standalone="no"?><!DOCTYPE svg PUBLIC "-//W3C//DTD SVG 1.1//EN" "http://www.w3.org/Graphics/SVG/1.1/DTD/svg11.dtd"><svg t="1624529439426" class="icon" viewBox="0 0 1066 1024" version="1.1" xmlns="http://www.w3.org/2000/svg" p-id="1372" xmlns:xlink="http://www.w3.org/1999/xlink" width="133.25" height="128"><defs><style type="text/css"></style></defs><path d="M554.666667 512a128 128 0 1 0 0 256 128 128 0 0 0 0-256z m0 170.666667a42.666667 42.666667 0 1 1 0-85.333334 42.666667 42.666667 0 0 1 0 85.333334z m-30.293334-268.373334a42.666667 42.666667 0 0 0 14.08 8.96 40.106667 40.106667 0 0 0 32.426667 0 42.666667 42.666667 0 0 0 14.08-8.96L682.666667 318.293333A44.032 44.032 0 1 0 620.373333 256l-23.04 25.173333V128a42.666667 42.666667 0 1 0-85.333333 0v153.173333L488.96 256A44.032 44.032 0 0 0 426.666667 318.293333l97.706666 96zM853.333333 640a42.666667 42.666667 0 1 0-85.333333 0 42.666667 42.666667 0 0 0 85.333333 0z m42.666667-298.666667h-128a42.666667 42.666667 0 0 0 0 85.333334h128a42.666667 42.666667 0 0 1 42.666667 42.666666v341.333334a42.666667 42.666667 0 0 1-42.666667 42.666666H213.333333a42.666667 42.666667 0 0 1-42.666666-42.666666v-341.333334a42.666667 42.666667 0 0 1 42.666666-42.666666h128a42.666667 42.666667 0 1 0 0-85.333334H213.333333a128 128 0 0 0-128 128v341.333334a128 128 0 0 0 128 128h682.666667a128 128 0 0 0 128-128v-341.333334a128 128 0 0 0-128-128zM256 640a42.666667 42.666667 0 1 0 85.333333 0 42.666667 42.666667 0 0 0-85.333333 0z"  p-id="1373"></path></svg>