<?xml version="1.0" standalone="no"?><!DOCTYPE svg PUBLIC "-//W3C//DTD SVG 1.1//EN" "http://www.w3.org/Graphics/SVG/1.1/DTD/svg11.dtd"><svg t="1624529372034" class="icon" viewBox="0 0 1024 1024" version="1.1" xmlns="http://www.w3.org/2000/svg" p-id="1077" xmlns:xlink="http://www.w3.org/1999/xlink" width="128" height="128"><defs><style type="text/css"></style></defs><path d="M185.07776 834.82624l87.77728 0c11.30496 0 20.48-9.15456 20.48-20.48l0-149.79072c0-11.32544-9.17504-20.48-20.48-20.48L185.07776 644.07552c-11.30496 0-20.48 9.15456-20.48 20.48l0 149.79072C164.59776 825.6512 173.7728 834.82624 185.07776 834.82624zM205.55776 685.01504l46.81728 0 0 108.83072-46.81728 0L205.55776 685.01504z"  p-id="1078"></path><path d="M448.38912 834.82624c11.30496 0 20.48-9.15456 20.48-20.48l0-422.7072c0-11.32544-9.17504-20.48-20.48-20.48l-87.77728 0c-11.30496 0-20.48 9.15456-20.48 20.48l0 422.7072c0 11.32544 9.17504 20.48 20.48 20.48L448.38912 834.82624zM381.09184 412.11904l46.81728 0 0 381.7472-46.81728 0L381.09184 412.11904z"  p-id="1079"></path><path d="M623.9232 834.82624c11.30496 0 20.48-9.15456 20.48-20.48L644.4032 531.6608c0-11.32544-9.17504-20.48-20.48-20.48L536.1664 511.1808c-11.30496 0-20.48 9.15456-20.48 20.48l0 282.68544c0 11.32544 9.17504 20.48 20.48 20.48L623.9232 834.82624zM556.6464 552.1408l46.81728 0 0 241.72544L556.6464 793.86624 556.6464 552.1408z"  p-id="1080"></path><path d="M691.22048 199.94624l0 614.4c0 11.32544 9.17504 20.48 20.48 20.48l87.77728 0c11.30496 0 20.48-9.15456 20.48-20.48l0-614.4c0-11.32544-9.17504-20.48-20.48-20.48l-87.77728 0C700.39552 179.46624 691.22048 188.6208 691.22048 199.94624zM732.18048 220.42624l46.81728 0 0 573.44-46.81728 0L732.18048 220.42624z" p-id="1081"></path></svg>